<svg width="48" height="48" viewBox="0 0 48 48" fill="none" xmlns="http://www.w3.org/2000/svg">
<path d="M2 36C2.3 32.4334 3.39167 29.15 5.275 26.15C7.15833 23.15 9.66667 20.7667 12.8 19L9.1 12.6C8.9 12.3 8.85 11.9834 8.95 11.65C9.05 11.3167 9.26667 11.0667 9.6 10.9C9.86667 10.7334 10.1667 10.7 10.5 10.8C10.8333 10.9 11.1 11.1 11.3 11.4L15 17.8C17.8667 16.6 20.8667 16 24 16C27.1333 16 30.1333 16.6 33 17.8L36.7 11.4C36.9 11.1 37.1667 10.9 37.5 10.8C37.8333 10.7 38.1333 10.7334 38.4 10.9C38.7333 11.0667 38.95 11.3167 39.05 11.65C39.15 11.9834 39.1 12.3 38.9 12.6L35.2 19C38.3333 20.7667 40.8417 23.15 42.725 26.15C44.6083 29.15 45.7 32.4334 46 36H2ZM14 30.5C14.7 30.5 15.2917 30.2584 15.775 29.775C16.2583 29.2917 16.5 28.7 16.5 28C16.5 27.3 16.2583 26.7084 15.775 26.225C15.2917 25.7417 14.7 25.5 14 25.5C13.3 25.5 12.7083 25.7417 12.225 26.225C11.7417 26.7084 11.5 27.3 11.5 28C11.5 28.7 11.7417 29.2917 12.225 29.775C12.7083 30.2584 13.3 30.5 14 30.5ZM34 30.5C34.7 30.5 35.2917 30.2584 35.775 29.775C36.2583 29.2917 36.5 28.7 36.5 28C36.5 27.3 36.2583 26.7084 35.775 26.225C35.2917 25.7417 34.7 25.5 34 25.5C33.3 25.5 32.7083 25.7417 32.225 26.225C31.7417 26.7084 31.5 27.3 31.5 28C31.5 28.7 31.7417 29.2917 32.225 29.775C32.7083 30.2584 33.3 30.5 34 30.5Z" fill="#1AB717"/>
</svg>
