<svg width="24" height="24" viewBox="0 0 24 24" fill="none" xmlns="http://www.w3.org/2000/svg">
<path d="M5.00013 6L6.50013 18.5L2.49063 14.4905C1.89613 13.896 1.73663 12.9925 2.09263 12.2305L5.00013 6Z" fill="#D2D2D2" stroke="#272727" stroke-width="2"/>
<path d="M13.6595 3.1595C13.237 2.737 12.6645 2.5 12.0675 2.5C11.695 2.5 11.328 2.5925 11 2.769L5 6V16.1715C5 16.702 5.2105 17.2105 5.586 17.5855L6.5 18.5H17.5V16L21 10.5L13.6595 3.1595Z" fill="#D2D2D2" stroke="#272727" stroke-width="2"/>
<path d="M5 6H15.6715C16.202 6 16.7105 6.2105 17.0855 6.586L21 10.5V18.5H17.5L5 6Z" fill="#D2D2D2" stroke="#272727" stroke-width="2"/>
<path d="M17.5 18.5H6.5L9.5 21.5H17.5V18.5Z" fill="#D2D2D2" stroke="#272727" stroke-width="2"/>
</svg>
