<svg width="20" height="20" viewBox="0 0 20 20" fill="none" xmlns="http://www.w3.org/2000/svg">
<path d="M4.00013 4L5.50013 16.5L1.49063 12.4905C0.896129 11.896 0.736629 10.9925 1.09263 10.2305L4.00013 4Z" fill="#D2D2D2" stroke="#020202" stroke-width="2"/>
<path d="M12.6595 1.1595C12.237 0.737 11.6645 0.5 11.0675 0.5C10.695 0.5 10.328 0.5925 10 0.769L4 4V14.1715C4 14.702 4.2105 15.2105 4.586 15.5855L5.5 16.5H16.5V14L20 8.5L12.6595 1.1595Z" fill="#D2D2D2" stroke="#020202" stroke-width="2"/>
<path d="M4 4H14.6715C15.202 4 15.7105 4.2105 16.0855 4.586L20 8.5V16.5H16.5L4 4Z" fill="#D2D2D2" stroke="#020202" stroke-width="2"/>
<path d="M16.5 16.5H5.5L8.5 19.5H16.5V16.5Z" fill="#D2D2D2" stroke="#020202" stroke-width="2"/>
</svg>
