<svg width="48" height="48" viewBox="0 0 48 48" fill="none" xmlns="http://www.w3.org/2000/svg">
<path d="M39.904 11.344C36.096 8.28199 30.072 7.76399 29.816 7.74199C29.414 7.70799 29.032 7.93599 28.868 8.30399C28.856 8.32799 28.724 8.62999 28.578 9.09999C31.096 9.52399 34.19 10.38 36.99 12.118C37.438 12.396 37.576 12.986 37.298 13.436C37.118 13.728 36.804 13.888 36.484 13.888C36.312 13.888 36.138 13.842 35.98 13.744C31.168 10.76 25.156 10.61 24 10.61C22.844 10.61 16.83 10.76 12.022 13.744C11.572 14.024 10.984 13.884 10.704 13.436C10.424 12.986 10.564 12.398 11.012 12.118C13.812 10.382 16.904 9.52399 19.424 9.09999C19.276 8.62799 19.144 8.32799 19.134 8.30399C18.968 7.93599 18.588 7.70399 18.184 7.74399C17.93 7.76399 11.906 8.28199 8.046 11.388C6.03 13.25 2 24.146 2 33.566C2 33.732 2.044 33.896 2.126 34.04C4.908 38.926 12.496 40.206 14.226 40.262C14.236 40.262 14.246 40.262 14.256 40.262C14.562 40.262 14.85 40.116 15.03 39.868L16.78 37.464C12.062 36.244 9.652 34.174 9.512 34.052C9.116 33.702 9.078 33.098 9.428 32.702C9.778 32.306 10.38 32.268 10.776 32.616C10.834 32.668 15.272 36.434 24 36.434C32.744 36.434 37.182 32.652 37.226 32.614C37.622 32.27 38.226 32.306 38.574 32.704C38.922 33.1 38.884 33.702 38.49 34.05C38.35 34.174 35.94 36.242 31.222 37.462L32.972 39.866C33.152 40.114 33.44 40.26 33.746 40.26C33.756 40.26 33.766 40.26 33.776 40.26C35.506 40.206 43.094 38.926 45.876 34.038C45.956 33.894 46 33.732 46 33.566C46 24.146 41.97 13.25 39.904 11.344ZM17.782 29.74C15.934 29.74 14.434 28.026 14.434 25.914C14.434 23.802 15.932 22.088 17.782 22.088C19.632 22.088 21.13 23.802 21.13 25.914C21.13 28.026 19.632 29.74 17.782 29.74ZM30.218 29.74C28.37 29.74 26.87 28.026 26.87 25.914C26.87 23.802 28.368 22.088 30.218 22.088C32.066 22.088 33.566 23.802 33.566 25.914C33.566 28.026 32.066 29.74 30.218 29.74Z" fill="#D2D2D2"/>
</svg>
