<svg id="Слой_1" data-name="Слой 1" xmlns="http://www.w3.org/2000/svg" viewBox="0 0 2015 2015"><defs><style>.cls-1,.cls-2{stroke:#fff;stroke-miterlimit:10;stroke-width:15px;}.cls-2{opacity:0;}</style></defs><path class="cls-1" d="M6990.56,6525.3h378.65l-120.09,490.92,353.46-432,346.92,238.92L7357.12,7134l592.38,41.86Q7920,7328.44,7890.59,7481c-74.94,19.24-526.93-135.37-559.65-173.46q153.81,216,307.64,432L7275.3,7873.7c-24.71-24.91-66.68-477.49-49.09-504l-284.58,504c-70.18-24.58-318.84-201-343.81-229.1,5.08-40.38,286.08-343.72,324-353.46l-471.28-114.55c-8.43-17.47,36.22-259.9,52.94-274.92,40.86-7.51,433.94,188.23,454.34,222.56-106.91-163.65-264.55-286.38-371.46-450,3.28-7.85,224.65-131.4,235.64-127.64,20.79,19.73,193.14,425.82,202.92,507.29C7024.93,6911,6990.56,6668.21,6990.56,6525.3Z" transform="translate(-6192 -6192)"/><rect class="cls-2" x="7.5" y="7.5" width="2000" height="2000"/></svg>