<svg width="48" height="48" viewBox="0 0 48 48" fill="none" xmlns="http://www.w3.org/2000/svg">
<path d="M21.7999 4.19995C12.5999 5.19995 5.19988 12.6 4.19988 21.6C2.99988 31.6 9.19988 40.2 17.9999 43V38.4C17.9999 38.4 17.1999 38.6 16.1999 38.6C13.3999 38.6 12.1999 36.2 11.9999 34.8C11.7999 34 11.3999 33.4 10.7999 32.8C10.1999 32.6 9.99988 32.6 9.99988 32.4C9.99988 32 10.5999 32 10.7999 32C11.9999 32 12.9999 33.4 13.3999 34C14.3999 35.6 15.5999 36 16.1999 36C16.9999 36 17.5999 35.8 17.9999 35.6C18.1999 34.2 18.7999 32.8 19.9999 32C15.3999 31 11.9999 28.4 11.9999 24C11.9999 21.8 12.9999 19.6 14.3999 18C14.1999 17.6 13.9999 16.6 13.9999 15.2C13.9999 14.4 13.9999 13.2 14.5999 12C14.5999 12 17.3999 12 20.1999 14.6C21.1999 14.2 22.5999 14 23.9999 14C25.3999 14 26.7999 14.2 27.9999 14.6C30.5999 12 33.5999 12 33.5999 12C33.9999 13.2 33.9999 14.4 33.9999 15.2C33.9999 16.8 33.7999 17.6 33.5999 18C34.9999 19.6 35.9999 21.6 35.9999 24C35.9999 28.4 32.5999 31 27.9999 32C29.1999 33 29.9999 34.8 29.9999 36.6V43.2C38.1999 40.6 43.9999 33 43.9999 24.2C43.9999 12.2 33.7999 2.79995 21.7999 4.19995Z" fill="#D2D2D2"/>
</svg>
