<svg width="24" height="24" viewBox="0 0 24 24" fill="none" xmlns="http://www.w3.org/2000/svg">
<path d="M2.59982 10.5899L8.37982 4.79995L10.0698 6.49995C9.82982 7.34995 10.2198 8.27995 10.9998 8.72995V14.2699C10.3998 14.6099 9.99982 15.2599 9.99982 15.9999C9.99982 16.5304 10.2105 17.0391 10.5856 17.4142C10.9607 17.7892 11.4694 17.9999 11.9998 17.9999C12.5303 17.9999 13.039 17.7892 13.414 17.4142C13.7891 17.0391 13.9998 16.5304 13.9998 15.9999C13.9998 15.2599 13.5998 14.6099 12.9998 14.2699V9.40995L15.0698 11.4999C14.9998 11.6499 14.9998 11.8199 14.9998 11.9999C14.9998 12.5304 15.2105 13.0391 15.5856 13.4142C15.9607 13.7892 16.4694 13.9999 16.9998 13.9999C17.5303 13.9999 18.039 13.7892 18.414 13.4142C18.7891 13.0391 18.9998 12.5304 18.9998 11.9999C18.9998 11.4695 18.7891 10.9608 18.414 10.5857C18.039 10.2107 17.5303 9.99995 16.9998 9.99995C16.8198 9.99995 16.6498 9.99995 16.4998 10.0699L13.9298 7.49995C14.1898 6.56995 13.7098 5.54995 12.7798 5.15995C12.3498 4.99995 11.8998 4.95995 11.4998 5.06995L9.79982 3.37995L10.5898 2.59995C11.3698 1.80995 12.6298 1.80995 13.4098 2.59995L21.3998 10.5899C22.1898 11.3699 22.1898 12.6299 21.3998 13.4099L13.4098 21.3999C12.6298 22.1899 11.3698 22.1899 10.5898 21.3999L2.59982 13.4099C1.80982 12.6299 1.80982 11.3699 2.59982 10.5899Z" fill="#D2D2D2"/>
</svg>
