<svg width="24" height="24" viewBox="0 0 24 24" fill="none" xmlns="http://www.w3.org/2000/svg">
<path d="M2.59982 10.5901L8.37982 4.80007L10.0698 6.50007C9.82982 7.35007 10.2198 8.28007 10.9998 8.73007V14.2701C10.3998 14.6101 9.99982 15.2601 9.99982 16.0001C9.99982 16.5305 10.2105 17.0392 10.5856 17.4143C10.9607 17.7894 11.4694 18.0001 11.9998 18.0001C12.5303 18.0001 13.039 17.7894 13.414 17.4143C13.7891 17.0392 13.9998 16.5305 13.9998 16.0001C13.9998 15.2601 13.5998 14.6101 12.9998 14.2701V9.41007L15.0698 11.5001C14.9998 11.6501 14.9998 11.8201 14.9998 12.0001C14.9998 12.5305 15.2105 13.0392 15.5856 13.4143C15.9607 13.7894 16.4694 14.0001 16.9998 14.0001C17.5303 14.0001 18.039 13.7894 18.414 13.4143C18.7891 13.0392 18.9998 12.5305 18.9998 12.0001C18.9998 11.4696 18.7891 10.9609 18.414 10.5859C18.039 10.2108 17.5303 10.0001 16.9998 10.0001C16.8198 10.0001 16.6498 10.0001 16.4998 10.0701L13.9298 7.50007C14.1898 6.57007 13.7098 5.55007 12.7798 5.16007C12.3498 5.00007 11.8998 4.96007 11.4998 5.07007L9.79982 3.38007L10.5898 2.60007C11.3698 1.81007 12.6298 1.81007 13.4098 2.60007L21.3998 10.5901C22.1898 11.3701 22.1898 12.6301 21.3998 13.4101L13.4098 21.4001C12.6298 22.1901 11.3698 22.1901 10.5898 21.4001L2.59982 13.4101C1.80982 12.6301 1.80982 11.3701 2.59982 10.5901Z" fill="#D2D2D2"/>
</svg>
