<svg width="25" height="24" viewBox="0 0 25 24" fill="none" xmlns="http://www.w3.org/2000/svg">
<path d="M3.54053 3H21.5593V21H3.54053V3ZM8.27547 18.04C8.67589 18.89 9.46671 19.59 10.8181 19.59C12.3197 19.59 13.3508 18.79 13.3508 17.04V11.26H11.649V17C11.649 17.86 11.2986 18.08 10.748 18.08C10.1674 18.08 9.92719 17.68 9.65691 17.21L8.27547 18.04ZM14.2617 17.86C14.7622 18.84 15.7733 19.59 17.3549 19.59C18.9566 19.59 20.1579 18.76 20.1579 17.23C20.1579 15.82 19.347 15.19 17.9055 14.57L17.4851 14.39C16.7543 14.08 16.444 13.87 16.444 13.37C16.444 12.96 16.7543 12.64 17.2548 12.64C17.7353 12.64 18.0557 12.85 18.346 13.37L19.6573 12.5C19.1068 11.54 18.326 11.17 17.2548 11.17C15.7433 11.17 14.7722 12.13 14.7722 13.4C14.7722 14.78 15.5831 15.43 16.8044 15.95L17.2248 16.13C18.0056 16.47 18.4661 16.68 18.4661 17.26C18.4661 17.74 18.0156 18.09 17.3149 18.09C16.484 18.09 16.0035 17.66 15.6432 17.06L14.2617 17.86Z" fill="#D2D2D2"/>
</svg>
