<svg width="48" height="48" viewBox="0 0 48 48" fill="none" xmlns="http://www.w3.org/2000/svg">
<path d="M44.2917 6.28997C43.5717 5.67941 42.4408 5.59205 41.2715 6.06149H41.2696C40.0398 6.55493 6.45905 20.9588 5.09201 21.5473C4.84337 21.6337 2.67185 22.4439 2.89553 24.2487C3.09521 25.8759 4.84049 26.5498 5.05361 26.6276L13.5909 29.5508C14.1573 31.4362 16.2453 38.3924 16.7071 39.8785C16.9951 40.8049 17.4645 42.0221 18.2872 42.2727C19.0091 42.5511 19.7272 42.2967 20.1919 41.9319L25.4114 37.0906L33.8373 43.6618L34.0379 43.7818C34.6101 44.0353 35.1582 44.162 35.6814 44.162C36.0856 44.162 36.4735 44.0861 36.844 43.9345C38.1064 43.4161 38.6114 42.2132 38.6642 42.0769L44.9579 9.36293C45.3419 7.61573 44.8082 6.72677 44.2917 6.28997ZM21.1202 30.7201L18.2402 38.4001L15.3602 28.8001L37.4402 12.4801L21.1202 30.7201Z" fill="#D2D2D2"/>
</svg>
