<svg width="48" height="48" viewBox="0 0 48 48" fill="none" xmlns="http://www.w3.org/2000/svg">
<path d="M44.2917 6.28991C43.5717 5.67935 42.4408 5.59199 41.2715 6.06143H41.2696C40.0398 6.55487 6.45905 20.9587 5.09201 21.5472C4.84337 21.6336 2.67185 22.4438 2.89553 24.2486C3.09521 25.8758 4.84049 26.5497 5.05361 26.6275L13.5909 29.5507C14.1573 31.4362 16.2453 38.3923 16.7071 39.8784C16.9951 40.8048 17.4645 42.0221 18.2872 42.2726C19.0091 42.551 19.7272 42.2966 20.1919 41.9318L25.4114 37.0906L33.8373 43.6618L34.0379 43.7818C34.6101 44.0352 35.1582 44.1619 35.6814 44.1619C36.0856 44.1619 36.4735 44.0861 36.844 43.9344C38.1064 43.416 38.6114 42.2131 38.6642 42.0768L44.9579 9.36287C45.3419 7.61567 44.8082 6.72671 44.2917 6.28991ZM21.1202 30.72L18.2402 38.4L15.3602 28.8L37.4402 12.48L21.1202 30.72Z" fill="#F3F3F3"/>
</svg>
