<svg width="22" height="26" viewBox="0 0 22 26" fill="none" xmlns="http://www.w3.org/2000/svg">
<path d="M11 0.952393C10.6255 0.952393 10.2511 1.04651 9.91758 1.23476L1.09468 6.19253C0.419456 6.57106 0 7.28107 0 8.04222V17.9578C0 18.7189 0.419456 19.4289 1.09468 19.8075L9.91758 24.7652C10.2511 24.9535 10.6255 25.0476 11 25.0476C11.3744 25.0476 11.7489 24.9535 12.0824 24.7652L20.9053 19.8095C21.5805 19.4289 22 18.7189 22 17.9578V8.04222C22 7.28107 21.5805 6.57106 20.9053 6.19253L12.0824 1.23476C11.7489 1.04651 11.3744 0.952393 11 0.952393ZM11 6.71429C12.9806 6.71429 14.8119 7.633 15.9987 9.19624L13.7029 10.5262C13.0134 9.7712 12.0333 9.33333 11 9.33333C8.97841 9.33333 7.33332 10.9784 7.33332 13C7.33332 15.0216 8.97841 16.6667 11 16.6667C12.0333 16.6667 13.0134 16.2288 13.7029 15.4738L15.9987 16.8037C14.8119 18.367 12.9806 19.2857 11 19.2857C7.53384 19.2857 4.71428 16.4661 4.71428 13C4.71428 9.53385 7.53384 6.71429 11 6.71429ZM16.2381 10.3809H17.2857V11.4286H18.3333V10.3809H19.3809V11.4286H20.4285V12.4762H19.3809V13.5238H20.4285V14.5714H19.3809V15.619H18.3333V14.5714H17.2857V15.619H16.2381V14.5714H15.1905V13.5238H16.2381V12.4762H15.1905V11.4286H16.2381V10.3809ZM17.2857 12.4762V13.5238H18.3333V12.4762H17.2857Z" fill="#D2D2D2"/>
</svg>
