<svg width="40" height="40" viewBox="0 0 40 40" fill="none" xmlns="http://www.w3.org/2000/svg">
<path d="M33.2721 32.1851L26.0291 20.001L33.2721 7.78005L36.7741 20.001L33.2721 32.1851ZM17.1261 30.994L8.01112 22.003H22.5201L29.7741 34.156L17.1261 30.994ZM17.1261 8.93405L29.7371 5.77205L22.4831 18.003H7.97512L17.1261 8.93405ZM34.6871 0.0330495L19.5791 3.95505C19.3191 4.02305 19.0961 4.19105 18.9601 4.42405L16.7171 8.26505L12.1841 8.23105C11.9181 8.22905 11.6631 8.33205 11.4721 8.51705L0.390121 19.275C-0.0188788 19.673 -0.0188788 20.33 0.391121 20.727L11.4721 31.451C11.6621 31.635 11.9181 31.7371 12.1831 31.7351L16.7171 31.701L18.9611 35.543C19.0961 35.775 19.3181 35.9431 19.5781 36.0111L34.6861 39.967C35.2221 40.107 35.7711 39.7901 35.9171 39.2561L39.9641 24.467C40.0381 24.198 39.9971 23.9101 39.8511 23.6721L37.6021 20.005L39.8511 16.331C39.9971 16.093 40.0381 15.805 39.9641 15.536L35.9161 0.744049C35.7701 0.211049 35.2221 -0.10595 34.6871 0.0330495Z" fill="#272727"/>
</svg>
