<svg width="22" height="26" viewBox="0 0 22 26" fill="none" xmlns="http://www.w3.org/2000/svg">
<path d="M11 0.952393C10.6256 0.952393 10.2511 1.04651 9.9176 1.23476L1.09468 6.19253C0.419457 6.57107 0 7.28108 0 8.04224V17.9578C0 18.7189 0.419457 19.429 1.09468 19.8075L9.9176 24.7653C10.2511 24.9535 10.6256 25.0476 11 25.0476C11.3744 25.0476 11.7489 24.9535 12.0824 24.7653L20.9053 19.8095C21.5805 19.429 22 18.7189 22 17.9578V8.04224C22 7.28108 21.5805 6.57107 20.9053 6.19253L12.0824 1.23476C11.7489 1.04651 11.3744 0.952393 11 0.952393ZM11 6.7143C12.9807 6.7143 14.8119 7.63301 15.9987 9.19625L13.7029 10.5262C13.0134 9.77122 12.0333 9.33334 11 9.33334C8.97842 9.33334 7.33333 10.9784 7.33333 13C7.33333 15.0216 8.97842 16.6667 11 16.6667C12.0333 16.6667 13.0134 16.2288 13.7029 15.4738L15.9987 16.8038C14.8119 18.367 12.9807 19.2857 11 19.2857C7.53385 19.2857 4.71429 16.4662 4.71429 13C4.71429 9.53387 7.53385 6.7143 11 6.7143ZM16.2381 10.381H17.2857V11.4286H18.3333V10.381H19.381V11.4286H20.4286V12.4762H19.381V13.5238H20.4286V14.5714H19.381V15.6191H18.3333V14.5714H17.2857V15.6191H16.2381V14.5714H15.1905V13.5238H16.2381V12.4762H15.1905V11.4286H16.2381V10.381ZM17.2857 12.4762V13.5238H18.3333V12.4762H17.2857Z" fill="#D2D2D2"/>
</svg>
